<svg xmlns="http://www.w3.org/2000/svg" viewBox="0 0 2293.92 1290.61"><g id="Layer_2" data-name="Layer 2"><g id="Layer_1-2" data-name="Layer 1"><path d="M1258.85,248.48a65.1,65.1,0,1,1-65.09-65.17A65.09,65.09,0,0,1,1258.85,248.48Zm-660,261.06c-93.56-54.29-77.18-63.93-132.33-98.75,9.3,3.53,64.31,93.63,127.2,131.49,39.12,18.53,69.28,29.06,68,39-3.63,10.47,3.46,73.23,17.26,138.52s7.89,80.32,7.89,80.32L622.33,956.9s-40.47,41.14-57.73,86-37.7,100.17-37.7,100.17l97.77-133.15L724.75,868.18s15.43-15.42,47.35-16.47c13.8,24.5,70.44,182,76.42,215.92s108.94,212.56,108.94,212.56l-76.88-248.4s-48.5-229.47-69.55-292c-7.34-32.1-7.34-78.22,1.44-122.76,31.29-44.94,106.19-67.54,124-77-54.68,1.19-111.89,27.06-111.89,27.06s-39.85.23-33-24.26,24-25.23,20-65.84c-4.11-42.19-58.06-59.48-71.86-26.84s2.68,53.22,2.68,53.22,11.83,24.52-22.7,24.52c-20.3,0-120.87-18.29-120.87-18.29Z" style="fill-rule:evenodd"/><path d="M615.72,1213.88c46.64-14.62,95.43-11.86,143.51-11.86h9.58l-6.94-4.78,2.4,5.55,3.11-10.34-6.46,4c-23.19,16.4-50.7,20.68-75.83,32l-10.29,5.29a9,9,0,0,0-4.06,5.29,8.06,8.06,0,0,0,5.73,9.58l7.42,1.77c63.62,1.78,127-2.28,190.41-4h3.81l-5-14.11-4.31,4,5-2h-5c-38.28,5.79-78.94,3.29-113.63,23.68l-3.1,1a8,8,0,0,0,2.24,15.55H759c52.62,2.79,107.39-8.31,158.12,11.35l1.44,2a8,8,0,0,0,4.52,2.25l6,.51h19.15a8.08,8.08,0,0,0,0-16.14H938.9l-14.35-.5,4.54,2-11-7.55c-50.23-17.14-103.33-7.8-155-10.07H754.5l2.16,15.6,11-4.76-.24.26c26.3-14.36,56.46-11.86,84.92-17.65l21.51-1.49a7.53,7.53,0,0,0,5-2l4.31-4a8.17,8.17,0,0,0,2.63-6,7.77,7.77,0,0,0-7.45-8.07h-7.86c-60.26,2.28-120.55,5.79-181.06,4l-9.33-1.24,1.68,15.09,9.07-4.78h-.18c24.16-10.82,51.18-14.36,73.44-30.48l11-6.31a8,8,0,0,0,3.1-10.07l-2.16-5.77a8,8,0,0,0-7.18-4.79h-9.57c-49,0-98.78-2.79-146.38,12.33a7.69,7.69,0,0,0-6,9l.06.28c.7,4.25,4.53,7.29,8.83,6.28Zm86.21-725.34a100.59,100.59,0,0,1,24.59-10.44c3.78-1.14,5.93-5.54,5-9.83s-4.62-6.94-8.41-5.78a108.55,108.55,0,0,0-28,12.21c-3.35,2.26-4.42,7.18-2.48,11s6.14,5.15,9.39,2.88Zm-24.19-33.12c9.28-.13,17.92,3.64,26.76,6.43,3.35,2,7.56.38,9.29-3.54s.31-8.81-3.14-10.82c-10.47-4.78-21.69-8.18-32.92-8.18-3.76,0-6.9,3.64-6.9,8.07s3.15,8,6.91,8Zm20.41-30.24c6.47,3.79,13.91,5.93,18.34,13.48,2.38,3.53,6.69,4.28,9.71,1.52A8.8,8.8,0,0,0,727.5,429a47.43,47.43,0,0,0-29.35-19.91c-3.89,0-6.92,3.66-6.92,8.07s3,8.05,6.92,8.05Zm11.75-50.12a137.56,137.56,0,0,1,6.91,17.38c1.28,4.15,5.29,6.43,8.84,4.91s5.5-6.17,4.21-10.32c-2.47-6.94-4.65-14.23-8.3-20.53-2.07-3.78-6.37-4.91-9.51-2.52A8.86,8.86,0,0,0,709.9,375.06Zm30.49-6.77c1.3.88,3.14,1.37,3.44,2.64,5.18,19.91,5.62,30.3,8.85,50.45.32,4.41,7.44,7.32,7.44,7.32s6.7-4.18,6.36-8.7c-3.12-21.16-4-32.31-9.27-53.22-1.18-4.65-3.13-9.19-8.2-11.07-3-2.77-7.32-2.16-9.71,1.25a9.12,9.12,0,0,0,1.09,11.33Zm35.38,9.83c0,20-1.18,48.19-1.18,48.19s3.13,8.06,6.91,8.06,6.9-3.65,6.9-8.06c0-20,1.18-28.17,1.18-48.19,0-4.41-3.12-8.07-6.9-8.07S775.77,373.74,775.77,378.12Zm41.54,14.73c-.76,6.78-3.89,12.35-6.9,18a8.8,8.8,0,0,0,2.16,11.09c3.24,2.39,7.56,1.12,9.49-2.66,4.21-7.18,7.65-14.61,8.86-23.69.63-4.28-1.84-8.56-5.62-9.31s-7.34,2.14-8,6.55Zm-2.9,63.86a70.39,70.39,0,0,0,27.73-9.19c3.24-2.26,4.32-7.17,2.38-11.08s-6.16-5-9.4-2.76a61.79,61.79,0,0,1-20.71,6.93c-3.79,0-6.9,3.65-6.9,8.06s3.11,8,6.9,8Z" style="fill-rule:evenodd"/><path d="M0,747C169.78,593.25,316.2,480.51,487.08,402.16,654.63,325.32,845.6,281.6,1105,264.73c-22.18-7.9-34.6-8.77-34.64-8.78l.68-6.89s18.94,1.32,51.2,14.95l-1.09,6.63c-266.44,16.05-460.86,59.8-630.91,137.78S174.24,598.78,5,752.09L0,747Z"/><path d="M1069.29,245.7l34.93,17.87L1103,270.5l.35-.17,15.13-8.47,3.71,6.59-35.43,19.88-4.61-5.91L1096,267.88l-30-15.37,3.42-6.76Z"/><text transform="translate(1128.65 904.68) scale(0.99 1)" style="isolation:isolate;font-size:1137.26708984375px;font-family:Chiller-Regular, Chiller">Art</text></g></g></svg>